<?xml version="1.0" encoding="UTF-8" standalone="no"?>
<svg xmlns:dc="http://purl.org/dc/elements/1.1/" xmlns:cc="http://creativecommons.org/ns#" xmlns:rdf="http://www.w3.org/1999/02/22-rdf-syntax-ns#"
   xmlns:svg="http://www.w3.org/2000/svg" xmlns="http://www.w3.org/2000/svg" xmlns:sodipodi="http://sodipodi.sourceforge.net/DTD/sodipodi-0.dtd"
   xmlns:inkscape="http://www.inkscape.org/namespaces/inkscape" id="svg8" version="1.1" viewBox="0 0 179.4669 189.72095" height="189.72095mm"
   width="179.4669mm" sodipodi:docname="letterboxed_template.svg" inkscape:version="0.92.4 (5da689c313, 2019-01-14)">
   <sodipodi:namedview pagecolor="#ffffff" bordercolor="#666666" borderopacity="1" objecttolerance="10" gridtolerance="10" guidetolerance="10"
      inkscape:pageopacity="0" inkscape:pageshadow="2" inkscape:window-width="1920" inkscape:window-height="1001" id="namedview1129" showgrid="false"
      inkscape:zoom="1.3164949" inkscape:cx="269.28112" inkscape:cy="471.02583" inkscape:window-x="-9" inkscape:window-y="-9"
      inkscape:window-maximized="1" inkscape:current-layer="lettersgroup" />
   <metadata id="metadata5">
      <rdf:RDF>
         <cc:Work rdf:about="">
            <dc:format>image/svg+xml</dc:format>
            <dc:type rdf:resource="http://purl.org/dc/dcmitype/StillImage" />
            <dc:title />
         </cc:Work>
      </rdf:RDF>
   </metadata>
   <rect
      style="opacity:1;fill:#f8aa9e;fill-opacity:1;stroke:#000000;stroke-width:0.41248831;stroke-linecap:round;stroke-linejoin:round;stroke-miterlimit:4;stroke-dasharray:none;stroke-dashoffset:0;stroke-opacity:1"
      id="rect858" width="179.05441" height="189.30846" x="0.20624641" y="0.20624413" />
   <rect
      style="opacity:1;fill:#ffffff;fill-opacity:1;stroke:#000000;stroke-width:0.80000001;stroke-linecap:round;stroke-linejoin:round;stroke-miterlimit:4;stroke-dasharray:none;stroke-dashoffset:0;stroke-opacity:1"
      id="rect826" width="86.556549" height="86.556549" x="46.776833" y="33.672886" />
   <g id="arrowsgroup">
      <path id="path4747" d="M 51.336376,76.532281 H 89.956824 V 40.851808"
         style="opacity:1;fill:none;stroke:#f4efef;stroke-width:0.96499997;stroke-linecap:butt;stroke-linejoin:miter;stroke-miterlimit:4" />
      <path id="path4753" d="m 87.517991,44.325864 2.438833,-3.474056 2.271793,3.407246"
         style="fill:none;stroke:#f4efef;stroke-width:0.96499997;stroke-linecap:butt;stroke-linejoin:miter;stroke-miterlimit:4" />
      <path id="path4755" d="M 59.488098,39.78273 V 69.583281"
         style="fill:none;stroke:#f4efef;stroke-width:0.96499997;stroke-linecap:butt;stroke-linejoin:miter;stroke-miterlimit:4" />
      <path id="path4757" d="m 51.73728,47.266274 h 73.09821"
         style="fill:none;stroke:#f4efef;stroke-width:0.96499997;stroke-linecap:butt;stroke-linejoin:miter;stroke-miterlimit:4" />
      <path id="path4759" d="M 56.815402,106.1992 H 107.06254 V 96.043381 h 11.62576 v -54.25613"
         style="fill:none;stroke:#f4efef;stroke-width:0.96499997;stroke-linecap:butt;stroke-linejoin:miter;stroke-miterlimit:4" />
      <path id="path4761" d="M 127.10729,76.532281 H 100.91487"
         style="fill:none;stroke:#f4efef;stroke-width:0.96499997;stroke-linecap:butt;stroke-linejoin:miter;stroke-miterlimit:4" />
      <path id="path4765" d="M 59.755367,114.08365 V 84.283101 h 30.201457 v 29.266009"
         style="fill:none;stroke:#f4efef;stroke-width:0.96499997;stroke-linecap:butt;stroke-linejoin:miter;stroke-miterlimit:4" />
      <path style="fill:none;stroke:#f4efef;stroke-width:0.96499997;stroke-linecap:butt;stroke-linejoin:miter;stroke-miterlimit:4"
         d="m 116.11583,44.325864 2.43883,-3.474056 2.2718,3.407246" id="path4767" />
      <path id="path4769" d="m 104.38892,78.971121 -3.47405,-2.43884 3.40724,-2.27179"
         style="fill:none;stroke:#f4efef;stroke-width:0.96499997;stroke-linecap:butt;stroke-linejoin:miter;stroke-miterlimit:4" />
      <path style="fill:none;stroke:#f4efef;stroke-width:0.96499997;stroke-linecap:butt;stroke-linejoin:miter;stroke-miterlimit:4"
         d="m 104.38892,78.971121 -3.47405,-2.43884 3.40724,-2.27179" id="path4771" />
      <path id="path4773" d="m 61.926938,66.109231 -2.43884,3.47405 -2.27179,-3.40724"
         style="fill:none;stroke:#f4efef;stroke-width:0.96499997;stroke-linecap:butt;stroke-linejoin:miter;stroke-miterlimit:4" />
      <path style="fill:none;stroke:#f4efef;stroke-width:0.96499997;stroke-linecap:butt;stroke-linejoin:miter;stroke-miterlimit:4"
         d="m 92.395664,110.81006 -2.43884,3.47405 -2.27179,-3.40724" id="path4775" />
      <path id="path4777" d="m 62.194207,110.6096 -2.43884,3.47405 -2.27179,-3.40724"
         style="fill:none;stroke:#f4efef;stroke-width:0.96499997;stroke-linecap:butt;stroke-linejoin:miter;stroke-miterlimit:4" />
      <path style="fill:none;stroke:#f4efef;stroke-width:0.96499997;stroke-linecap:butt;stroke-linejoin:miter;stroke-miterlimit:4"
         d="m 128.36185,106.69439 h -9.15405 v 8.08474" id="path4779" />
      <path id="path4781" d="m 121.65746,112.06803 -2.43884,3.47405 -2.27179,-3.40724"
         style="fill:none;stroke:#f4efef;stroke-width:0.96499997;stroke-linecap:butt;stroke-linejoin:miter;stroke-miterlimit:4" />
   </g>
   <g id="lettersgroup">
      <g id="side-3">
         <g id="g1288">
            <circle cy="119.78752" cx="59.879082" id="circle836"
               style="opacity:1;fill:#ffffff;fill-opacity:1;stroke:#000000;stroke-width:0.65;stroke-linecap:round;stroke-linejoin:round;stroke-miterlimit:4;stroke-dasharray:none;stroke-dashoffset:0;stroke-opacity:1"
               r="2.8908136" />
            <text id="text4614" y="137.57756" x="60.149208"
               style="font-style:normal;font-variant:normal;font-weight:bold;font-stretch:normal;font-size:15.90322208px;line-height:1;font-family:'Liberation Sans';-inkscape-font-specification:'Liberation Sans Bold';text-align:center;letter-spacing:0px;word-spacing:0px;text-anchor:middle;fill:#ffffff;fill-opacity:1;stroke:none;stroke-width:0.26458332"
               xml:space="preserve">
               <tspan style="font-size:15.90322208px;fill:#ffffff;stroke-width:0.26458332" y="137.57756" x="60.149208" id="tspan4612">I</tspan>
            </text>
         </g>
         <g id="g1283">
            <circle r="2.8908136"
               style="opacity:1;fill:#ffffff;fill-opacity:1;stroke:#000000;stroke-width:0.65;stroke-linecap:round;stroke-linejoin:round;stroke-miterlimit:4;stroke-dasharray:none;stroke-dashoffset:0;stroke-opacity:1"
               id="circle838" cx="89.644707" cy="119.78752" />
            <text xml:space="preserve"
               style="font-style:normal;font-variant:normal;font-weight:bold;font-stretch:normal;font-size:15.90322208px;line-height:1;font-family:'Liberation Sans';-inkscape-font-specification:'Liberation Sans Bold';text-align:center;letter-spacing:0px;word-spacing:0px;text-anchor:middle;fill:#ffffff;fill-opacity:1;stroke:none;stroke-width:0.26458332"
               x="89.94976" y="137.57756" id="text4618">
               <tspan id="tspan4616" x="89.94976" y="137.57756" style="font-size:15.90322208px;fill:#ffffff;stroke-width:0.26458332">H</tspan>
            </text>
         </g>
         <g id="g1278">
            <circle cy="119.78752" cx="119.41033" id="circle840"
               style="opacity:1;fill:#ffffff;fill-opacity:1;stroke:#000000;stroke-width:0.65;stroke-linecap:round;stroke-linejoin:round;stroke-miterlimit:4;stroke-dasharray:none;stroke-dashoffset:0;stroke-opacity:1"
               r="2.8908136" />
            <text id="text4622" y="137.57756" x="119.61668"
               style="font-style:normal;font-variant:normal;font-weight:bold;font-stretch:normal;font-size:15.90322208px;line-height:1;font-family:'Liberation Sans';-inkscape-font-specification:'Liberation Sans Bold';text-align:center;letter-spacing:0px;word-spacing:0px;text-anchor:middle;fill:#ffffff;fill-opacity:1;stroke:none;stroke-width:0.26458332"
               xml:space="preserve">
               <tspan style="font-size:15.90322208px;fill:#ffffff;stroke-width:0.26458332" y="137.57756" x="119.61668" id="tspan4620">G</tspan>
            </text>
         </g>
      </g>
      <g id="side-1">
         <g id="g1248">
            <circle r="2.8908136"
               style="opacity:1;fill:#ffffff;fill-opacity:1;stroke:#000000;stroke-width:0.65;stroke-linecap:round;stroke-linejoin:round;stroke-miterlimit:4;stroke-dasharray:none;stroke-dashoffset:0;stroke-opacity:1"
               id="circle850" cx="59.879082" cy="33.892422" />
            <text xml:space="preserve"
               style="font-style:normal;font-variant:normal;font-weight:bold;font-stretch:normal;font-size:15.90322208px;line-height:1;font-family:'Liberation Sans';-inkscape-font-specification:'Liberation Sans Bold';text-align:center;letter-spacing:0px;word-spacing:0px;text-anchor:middle;fill:#ffffff;fill-opacity:1;stroke:none;stroke-width:0.26458332"
               x="60.149208" y="25.965532" id="text4626">
               <tspan id="tspan4624" x="60.149208" y="25.965532" style="font-size:15.90322208px;fill:#ffffff;stroke-width:0.26458332">A</tspan>
            </text>
         </g>
         <g id="g1253">
            <circle cy="33.892422" cx="89.644707" id="circle852"
               style="opacity:1;fill:#ffffff;fill-opacity:1;stroke:#000000;stroke-width:0.65;stroke-linecap:round;stroke-linejoin:round;stroke-miterlimit:4;stroke-dasharray:none;stroke-dashoffset:0;stroke-opacity:1"
               r="2.8908136" />
            <text id="text4630" y="25.965532" x="89.742058"
               style="font-style:normal;font-variant:normal;font-weight:bold;font-stretch:normal;font-size:15.90322208px;line-height:1;font-family:'Liberation Sans';-inkscape-font-specification:'Liberation Sans Bold';text-align:center;letter-spacing:0px;word-spacing:0px;text-anchor:middle;fill:#ffffff;fill-opacity:1;stroke:none;stroke-width:0.26458332"
               xml:space="preserve">
               <tspan style="font-size:15.90322208px;fill:#ffffff;stroke-width:0.26458332" y="25.965532" x="89.742058" id="tspan4628">B</tspan>
            </text>
         </g>
         <g id="g1258">
            <circle r="2.8908136"
               style="opacity:1;fill:#ffffff;fill-opacity:1;stroke:#000000;stroke-width:0.65;stroke-linecap:round;stroke-linejoin:round;stroke-miterlimit:4;stroke-dasharray:none;stroke-dashoffset:0;stroke-opacity:1"
               id="circle854" cx="119.59932" cy="33.892422" />
            <text xml:space="preserve"
               style="font-style:normal;font-variant:normal;font-weight:bold;font-stretch:normal;font-size:15.90322208px;line-height:1;font-family:'Liberation Sans';-inkscape-font-specification:'Liberation Sans Bold';text-align:center;letter-spacing:0px;word-spacing:0px;text-anchor:middle;fill:#ffffff;fill-opacity:1;stroke:none;stroke-width:0.26458332"
               x="119.86945" y="25.965532" id="text4634">
               <tspan id="tspan4632" x="119.86945" y="25.965532" style="font-size:15.90322208px;fill:#ffffff;stroke-width:0.26458332">C</tspan>
            </text>
         </g>
      </g>
      <g id="side-2">
         <g id="g1263">
            <circle cy="46.993694" cx="132.74496" id="circle848"
               style="opacity:1;fill:#ffffff;fill-opacity:1;stroke:#000000;stroke-width:0.65;stroke-linecap:round;stroke-linejoin:round;stroke-miterlimit:4;stroke-dasharray:none;stroke-dashoffset:0;stroke-opacity:1"
               r="2.8908136" />
            <text xml:space="preserve"
               style="font-style:normal;font-variant:normal;font-weight:bold;font-stretch:normal;font-size:15.90327549px;line-height:1;font-family:'Liberation Sans';-inkscape-font-specification:'Liberation Sans Bold';text-align:center;letter-spacing:0px;word-spacing:0px;dominant-baseline:middle;text-anchor:middle;fill:#ffffff;fill-opacity:1;stroke:none;stroke-width:0.79516375"
               x="144.51106" y="48.0145" id="text4594" dominant-baseline="middle">
               <tspan id="tspan4592" x="144.51106" y="48.0145" style="text-align:center;text-anchor:middle;fill:#ffffff;stroke-width:0.79516375">D
               </tspan>
            </text>
         </g>
         <g id="g1268">
            <circle r="2.8908136"
               style="opacity:1;fill:#ffffff;fill-opacity:1;stroke:#000000;stroke-width:0.65;stroke-linecap:round;stroke-linejoin:round;stroke-miterlimit:4;stroke-dasharray:none;stroke-dashoffset:0;stroke-opacity:1"
               id="circle846" cx="132.74496" cy="76.759323" />
            <text dominant-baseline="middle" id="text4785" y="76.879608" x="144.51106"
               style="font-style:normal;font-variant:normal;font-weight:bold;font-stretch:normal;font-size:15.90327549px;line-height:1;font-family:'Liberation Sans';-inkscape-font-specification:'Liberation Sans Bold';text-align:center;letter-spacing:0px;word-spacing:0px;dominant-baseline:middle;text-anchor:middle;fill:#ffffff;fill-opacity:1;stroke:none;stroke-width:0.79516375"
               xml:space="preserve">
               <tspan style="text-align:center;text-anchor:middle;fill:#ffffff;stroke-width:0.79516375" y="76.879608" x="144.51106" id="tspan4783">E
               </tspan>
            </text>
         </g>
         <g id="g1273">
            <circle cy="106.61945" cx="132.74496" id="circle844"
               style="opacity:1;fill:#ffffff;fill-opacity:1;stroke:#000000;stroke-width:0.65;stroke-linecap:round;stroke-linejoin:round;stroke-miterlimit:4;stroke-dasharray:none;stroke-dashoffset:0;stroke-opacity:1"
               r="2.8908136" />
            <text xml:space="preserve"
               style="font-style:normal;font-variant:normal;font-weight:bold;font-stretch:normal;font-size:15.90327549px;line-height:1;font-family:'Liberation Sans';-inkscape-font-specification:'Liberation Sans Bold';text-align:center;letter-spacing:0px;word-spacing:0px;dominant-baseline:middle;text-anchor:middle;fill:#ffffff;fill-opacity:1;stroke:none;stroke-width:0.79516375"
               x="144.51106" y="106.81379" id="text4789" dominant-baseline="middle">
               <tspan id="tspan4787" x="144.51106" y="106.81379" style="text-align:center;text-anchor:middle;fill:#ffffff;stroke-width:0.79516375">F
               </tspan>
            </text>
         </g>
      </g>
      <g id="side-4">
         <g id="g1304">
            <circle r="2.5040922" cy="47.043797" cx="46.304359" id="path828"
               style="opacity:1;fill:#ffffff;fill-opacity:1;stroke:#000000;stroke-width:0.40000001;stroke-linecap:round;stroke-linejoin:round;stroke-miterlimit:4;stroke-dasharray:none;stroke-dashoffset:0;stroke-opacity:1" />
            <circle r="2.8908136"
               style="opacity:1;fill:#ffffff;fill-opacity:1;stroke:#000000;stroke-width:0.65;stroke-linecap:round;stroke-linejoin:round;stroke-miterlimit:4;stroke-dasharray:none;stroke-dashoffset:0;stroke-opacity:1"
               id="circle830" cx="46.755379" cy="46.993687" />
            <text dominant-baseline="middle" id="text4590" y="47.212688" x="35.511414"
               style="font-style:normal;font-variant:normal;font-weight:bold;font-stretch:normal;font-size:15.90327549px;line-height:1;font-family:'Liberation Sans';-inkscape-font-specification:'Liberation Sans Bold';text-align:center;letter-spacing:0px;word-spacing:0px;dominant-baseline:middle;text-anchor:middle;fill:#ffffff;fill-opacity:1;stroke:none;stroke-width:0.79516375"
               xml:space="preserve">
               <tspan style="text-align:center;text-anchor:middle;fill:#ffffff;stroke-width:0.79516375" y="47.212688" x="35.511414" id="tspan4588">L
               </tspan>
            </text>
         </g>
         <g id="g1298">
            <circle cy="76.664825" cx="46.755379" id="circle832"
               style="opacity:1;fill:#ffffff;fill-opacity:1;stroke:#000000;stroke-width:0.65;stroke-linecap:round;stroke-linejoin:round;stroke-miterlimit:4;stroke-dasharray:none;stroke-dashoffset:0;stroke-opacity:1"
               r="2.8908136" />
            <text xml:space="preserve"
               style="font-style:normal;font-variant:normal;font-weight:bold;font-stretch:normal;font-size:15.90327549px;line-height:1;font-family:'Liberation Sans';-inkscape-font-specification:'Liberation Sans Bold';text-align:center;letter-spacing:0px;word-spacing:0px;dominant-baseline:middle;text-anchor:middle;fill:#ffffff;fill-opacity:1;stroke:none;stroke-width:0.79516375"
               x="35.511414" y="76.745972" id="text4793" dominant-baseline="middle">
               <tspan id="tspan4791" x="35.511414" y="76.745972" style="text-align:center;text-anchor:middle;fill:#ffffff;stroke-width:0.79516375">K
               </tspan>
            </text>
         </g>
         <g id="g1293">
            <circle r="2.8908136"
               style="opacity:1;fill:#ffffff;fill-opacity:1;stroke:#000000;stroke-width:0.65;stroke-linecap:round;stroke-linejoin:round;stroke-miterlimit:4;stroke-dasharray:none;stroke-dashoffset:0;stroke-opacity:1"
               id="circle834" cx="46.755379" cy="106.61945" />
            <text dominant-baseline="middle" id="text4797" y="108.28378" x="35.511414"
               style="font-style:normal;font-variant:normal;font-weight:bold;font-stretch:normal;font-size:15.90327549px;line-height:1;font-family:'Liberation Sans';-inkscape-font-specification:'Liberation Sans Bold';text-align:center;letter-spacing:0px;word-spacing:0px;dominant-baseline:middle;text-anchor:middle;fill:#ffffff;fill-opacity:1;stroke:none;stroke-width:0.79516375"
               xml:space="preserve">
               <tspan style="text-align:center;text-anchor:middle;fill:#ffffff;stroke-width:0.79516375" y="108.28378" x="35.511414" id="tspan4795">J
               </tspan>
            </text>
         </g>
      </g>
   </g>
   <g style="fill:#c83737;fill-opacity:1" id="g8" transform="matrix(0.00821703,0,0,0.00821703,51.296767,139.38555)">
      <g style="fill:#c83737;fill-opacity:1" id="g10">
         <path style="fill:#c83737;fill-opacity:1" id="path12"
            d="m 4403.03,5101.94 c -680.52,-547.421 -364.819,-1220.72 47.8543,-1530.21 44.7244,40.6614 72.4528,61.6339 104.776,98.0669 -297.835,221.5 -693.508,644.504 -165.669,1306.96 109.063,103.512 376.181,143.165 470.882,-65.8071 21.0906,-46.5354 31.6693,-64.7717 45.9252,-33.815 99.5551,304.512 -330.091,324.799 -503.768,224.803 z" />
         <path style="fill:#c83737;fill-opacity:1" id="path14"
            d="m 4437.53,4504.59 c -14.7323,-47.1063 -45.8465,-73.7126 21.315,-52.7638 211.874,66.0787 491.685,168.386 590.26,15.6496 237.587,-368.079 -592.638,-981.335 -824.512,-1149.57 19.1535,-16.1063 23.7008,-18.4488 47.9961,-34.0551 401.866,234.106 1159.13,827.335 862.551,1257.74 -194.366,282.051 -684.421,5.1654 -697.61,-36.9961 z" />
         <path style="fill:#c83737;fill-opacity:1" id="path16"
            d="m 5055.82,3298.59 c 24.6024,-30.9016 18.2165,-19.815 44.3583,-35.1772 221.161,115.496 712.787,337.217 966.087,265.374 133.598,-34.626 388.071,-129.594 102.787,28.374 -241.315,157.382 -892.906,-131.461 -1113.23,-258.571 z" />
         <path style="fill:#c83737;fill-opacity:1" id="path18"
            d="m 3178.98,3544.03 c -165.382,-41.6378 -129.177,-53.4134 -2.4606,-49.1457 709.169,-103.776 882.945,-227.197 1263.4,-528.937 34.3976,19.6575 71.2598,37.3819 100.22,71.9094 -326.106,326.102 -902.579,527.016 -1361.16,506.173 z" />
         <path style="fill:#c83737;fill-opacity:1" id="path20"
            d="m 4863.26,3163.28 c -116.307,-64.0748 -500.189,-293.516 -678.425,-441.512 4.9173,-4.9134 37.0433,-23.122 44.4173,-25.5787 210.106,153.161 455.394,293.429 671.642,431.043 4.7677,23.874 -23.8976,22.311 -37.6339,36.0472 z" />
         <path style="fill:#c83737;fill-opacity:1" id="path22"
            d="m 4904.41,2557.25 c -116.307,-64.0787 -557.528,-320.697 -735.764,-468.689 4.9173,-4.9134 37.0433,-23.122 44.4173,-25.5827 210.106,153.161 525.35,323.146 741.598,460.756 -18.7874,17.9961 -36.5157,19.7756 -50.252,33.5157 z" />
         <path style="fill:#c83737;fill-opacity:1" id="path24"
            d="m 3473.32,2906.76 c 63.2165,25.3819 34.2323,27.3661 95.0827,56.8268 -241.697,135.433 -785.382,48.4134 -720.697,-220.024 77.6732,-322.358 890.957,159.465 1239.83,432.906 -14.5512,1.6063 -5.4016,20.0748 -43.5827,33.7008 -272.205,-254.756 -1151.37,-734.335 -1120.09,-415.626 18.7126,190.654 468.098,219.835 549.453,112.217 z" />
         <path style="fill:#c83737;fill-opacity:1" id="path26"
            d="m 5615.47,2810.42 c 38.1614,-56.626 557.232,-141.591 535.421,79.9016 -20.9528,212.732 -935.728,-214.496 -1006.07,-240.35 -2.937,9.1693 -27.2244,12.0197 -46.6102,34.3031 117.323,52.2441 1130.8,540.846 1120.09,173.894 -3.6457,-124.933 -365.894,-280.496 -708.567,-89.0394 34.8622,15.811 24.0669,8.1299 105.74,41.2913 z" />
         <path style="fill:#c83737;fill-opacity:1" id="path28"
            d="m 7738.04,1615.05 c -298.748,-859.85 -2546.93,386.189 -3017.73,707.854 -29.9055,-23.5 -65.9134,-33.748 -109.138,-71.9252 548.11,-396.331 2821.17,-1659.43 3272.6,-738.173 450.476,919.291 -1397.43,1314.89 -1999.7,902.819 -2.4567,-7.3701 -2.4567,-12.2874 -2.4567,-17.2047 46.6929,0 103.213,34.4055 149.898,54.063 500.807,79.0709 2005.28,22.4173 1706.52,-837.433 z" />
         <path style="fill:#c83737;fill-opacity:1" id="path30"
            d="m 3184.45,2076.13 c 32.5157,14.0591 19.878,18.2756 11.9567,37.9409 -135.37,21.9134 -903.409,-15.2008 -766.024,-314.13 107.634,-234.201 591.835,21.6732 781.276,154.276 189.441,132.606 631.02,448.957 837.031,595.157 0,9.8307 -46.5669,17.6614 -44.1102,29.9449 -305.272,-209.476 -538.461,-396.256 -810,-569.425 -271.543,-173.173 -581.996,-284.11 -639.823,-188.004 -132.697,230.992 597.177,240.185 629.693,254.24 z" />
         <path style="fill:#c83737;fill-opacity:1" id="path32"
            d="m 3402.47,2202.64 c 43.0945,39.7087 101.39,71.0669 126.933,109.457 -865.094,288.185 -1788.48,390.661 -2095.83,-414.449 -116.854,-306.134 102.61,-687.724 398.327,-789.087 673.602,-230.902 1603.27,485.724 2165.45,802.52 -22.5354,11.622 -28.6457,14.4843 -58.2047,22.1102 -899.413,-422.358 -2004.74,-1249.32 -2320.59,-427.677 -304.815,792.941 934.118,1126.87 1783.92,697.126 z" />
         <path style="fill:#c83737;fill-opacity:1" id="path34"
            d="m 5224.02,2070.11 c -2.4606,-9.8307 53.7205,-33.3346 53.7205,-40.7087 172.315,45.2756 1282.44,319.358 1165.52,-57.7362 -73.1299,-235.886 -482.949,6.1496 -656.539,130.839 -50.5787,-9.1024 -69.6654,-16.0236 -118.63,-27.1417 137.197,-121.445 726.815,-475.768 859.22,-99.0276 149.406,425.142 -1131.4,160.26 -1303.29,93.7756 z" />
         <path style="fill:#c83737;fill-opacity:1" id="path36"
            d="m 3531.37,2132.88 c 297.343,-95.8386 667.61,-231.874 940.374,-389.142 31.878,10.689 71.937,25.811 135.15,68.8031 -267.85,159.728 -648.051,316.39 -947.85,409.768 -15.2756,-17.7992 -47.8386,-39.3228 -110.606,-77.3661 -7.7126,-4.6654 -8.4291,-6.8819 -17.0669,-12.063 z" />
         <path style="fill:#c83737;fill-opacity:1" id="path38"
            d="m 3603.71,2806.24 c 289.811,-116.654 604.35,-262.291 865.295,-438.484 32.5591,8.4055 55.6693,28.7441 121.768,67.1535 -255.866,178.295 -621.657,351.72 -858.252,440.913 -15.878,-17.0669 -47.5669,-25.8268 -100.953,-48.5472 -8.252,-3.5158 -18.874,-16.4764 -27.8583,-21.0354 z" />
         <path style="fill:#c83737;fill-opacity:1" id="path40"
            d="m 4610.89,3435.92 c 282.827,-248.594 509.665,-407.591 770.606,-583.783 32.5276,9.5354 42.0433,24.9409 118.449,52.7913 -255.866,178.299 -481.524,316.071 -782.37,618.413 -72.9055,-78.2874 -45.5276,-46.7874 -106.685,-87.4213 z" />
         <path style="fill:#c83737;fill-opacity:1" id="path42"
            d="m 4559.75,2851.93 c 340.961,-219.354 687.634,-482.717 948.579,-658.909 29.8425,4.8268 63.5669,2.4882 155.929,24 -255.87,178.299 -669.224,494.65 -989.504,715.248 -65.4213,-49.3898 -56.0591,-32.6142 -115.004,-80.3386 z" />
         <path style="fill:#c83737;fill-opacity:1" id="path44"
            d="m 5020.08,1951.4 c -2.7008,-11.4213 53.9291,-28.8898 53.9291,-37.4567 -335.772,-142.295 -657.937,-323.295 -979.65,-484.114 150.13,-41.311 480.358,-227.933 574.555,-220.783 109.626,56.3937 140.646,69.7402 402.043,161.701 35.7402,3.6811 36.4646,12.2559 0.7205,22.8425 -62.2441,37.126 -176.957,117.173 -447.315,254.272 31.2559,22.6299 -12.1535,-21.3189 139.327,69.5276 250.039,-155.799 412.807,-266.681 642.843,-292.382 33.9843,-10.6496 63.0315,-22.3701 8.1181,-34.2677 -32.0236,-6.9331 -41.1102,-13.0197 -209.685,-46.5276 -205.752,-40.9055 -383.591,-125.413 -567.618,-231.075 -204.441,20.2953 -553.791,238.941 -781.516,263.323 -2.7087,8.5669 -2.7087,17.1299 -2.7087,25.7047 265.484,55.5591 970.055,489.575 1166.96,549.236 z"
            class="fi1" />
      </g>
   </g>
</svg>