<?xml version="1.0" encoding="UTF-8" standalone="no"?>
<svg
   xmlns:dc="http://purl.org/dc/elements/1.1/"
   xmlns:cc="http://creativecommons.org/ns#"
   xmlns:rdf="http://www.w3.org/1999/02/22-rdf-syntax-ns#"
   xmlns:svg="http://www.w3.org/2000/svg"
   xmlns="http://www.w3.org/2000/svg"
   id="svg8"
   version="1.1"
   viewBox="0 0 179.4669 189.72095"
   height="189.72095mm"
   width="179.4669mm">
  <defs
     id="defs2">
    <style
       type="text/css"
       id="style6"><![CDATA[
    .fi0 {fill:#000}
    .fi1 {fill:#0d0d0d}
   ]]></style>
  </defs>
  <metadata
     id="metadata5">
    <rdf:RDF>
      <cc:Work
         rdf:about="">
        <dc:format>image/svg+xml</dc:format>
        <dc:type
           rdf:resource="http://purl.org/dc/dcmitype/StillImage" />
        <dc:title></dc:title>
      </cc:Work>
    </rdf:RDF>
  </metadata>
  <g
     transform="translate(115.474,-49.422109)"
     id="layer1">
    <rect
       y="49.628353"
       x="-115.26775"
       height="189.30846"
       width="179.05441"
       id="rect858"
       style="opacity:1;fill:#f8aa9e;fill-opacity:1;stroke:#000000;stroke-width:0.41248831;stroke-linecap:round;stroke-linejoin:round;stroke-miterlimit:4;stroke-dasharray:none;stroke-dashoffset:0;stroke-opacity:1" />
    <g
       transform="translate(0,-23.404997)"
       id="g874">
      <rect
         style="opacity:1;fill:#ffffff;fill-opacity:1;stroke:#000000;stroke-width:0.80000001;stroke-linecap:round;stroke-linejoin:round;stroke-miterlimit:4;stroke-dasharray:none;stroke-dashoffset:0;stroke-opacity:1"
         id="rect826"
         width="86.556549"
         height="86.556549"
         x="-68.697166"
         y="106.49999" />
      <circle
         style="opacity:1;fill:#ffffff;fill-opacity:1;stroke:#000000;stroke-width:0.40000001;stroke-linecap:round;stroke-linejoin:round;stroke-miterlimit:4;stroke-dasharray:none;stroke-dashoffset:0;stroke-opacity:1"
         id="path828"
         cx="-69.16964"
         cy="119.8709"
         r="2.5040922" />
      <circle
         cy="119.82079"
         cx="-68.71862"
         id="circle830"
         style="opacity:1;fill:#ffffff;fill-opacity:1;stroke:#000000;stroke-width:0.46177432;stroke-linecap:round;stroke-linejoin:round;stroke-miterlimit:4;stroke-dasharray:none;stroke-dashoffset:0;stroke-opacity:1"
         r="2.8908136" />
      <circle
         r="2.8908136"
         style="opacity:1;fill:#ffffff;fill-opacity:1;stroke:#000000;stroke-width:0.46177432;stroke-linecap:round;stroke-linejoin:round;stroke-miterlimit:4;stroke-dasharray:none;stroke-dashoffset:0;stroke-opacity:1"
         id="circle832"
         cx="-68.71862"
         cy="149.49193" />
      <circle
         cy="179.44655"
         cx="-68.71862"
         id="circle834"
         style="opacity:1;fill:#ffffff;fill-opacity:1;stroke:#000000;stroke-width:0.46177432;stroke-linecap:round;stroke-linejoin:round;stroke-miterlimit:4;stroke-dasharray:none;stroke-dashoffset:0;stroke-opacity:1"
         r="2.8908136" />
      <circle
         r="2.8908136"
         style="opacity:1;fill:#ffffff;fill-opacity:1;stroke:#000000;stroke-width:0.46177432;stroke-linecap:round;stroke-linejoin:round;stroke-miterlimit:4;stroke-dasharray:none;stroke-dashoffset:0;stroke-opacity:1"
         id="circle836"
         cx="-55.594917"
         cy="192.61462" />
      <circle
         cy="192.61462"
         cx="-25.829292"
         id="circle838"
         style="opacity:1;fill:#ffffff;fill-opacity:1;stroke:#000000;stroke-width:0.46177432;stroke-linecap:round;stroke-linejoin:round;stroke-miterlimit:4;stroke-dasharray:none;stroke-dashoffset:0;stroke-opacity:1"
         r="2.8908136" />
      <circle
         r="2.8908136"
         style="opacity:1;fill:#ffffff;fill-opacity:1;stroke:#000000;stroke-width:0.46177432;stroke-linecap:round;stroke-linejoin:round;stroke-miterlimit:4;stroke-dasharray:none;stroke-dashoffset:0;stroke-opacity:1"
         id="circle840"
         cx="3.9363327"
         cy="192.61462" />
      <circle
         r="2.8908136"
         style="opacity:1;fill:#ffffff;fill-opacity:1;stroke:#000000;stroke-width:0.46177432;stroke-linecap:round;stroke-linejoin:round;stroke-miterlimit:4;stroke-dasharray:none;stroke-dashoffset:0;stroke-opacity:1"
         id="circle844"
         cx="17.270964"
         cy="179.44655" />
      <circle
         cy="149.58643"
         cx="17.270964"
         id="circle846"
         style="opacity:1;fill:#ffffff;fill-opacity:1;stroke:#000000;stroke-width:0.46177432;stroke-linecap:round;stroke-linejoin:round;stroke-miterlimit:4;stroke-dasharray:none;stroke-dashoffset:0;stroke-opacity:1"
         r="2.8908136" />
      <circle
         r="2.8908136"
         style="opacity:1;fill:#ffffff;fill-opacity:1;stroke:#000000;stroke-width:0.46177432;stroke-linecap:round;stroke-linejoin:round;stroke-miterlimit:4;stroke-dasharray:none;stroke-dashoffset:0;stroke-opacity:1"
         id="circle848"
         cx="17.270964"
         cy="119.8208" />
      <circle
         cy="106.71953"
         cx="-55.594917"
         id="circle850"
         style="opacity:1;fill:#ffffff;fill-opacity:1;stroke:#000000;stroke-width:0.46177432;stroke-linecap:round;stroke-linejoin:round;stroke-miterlimit:4;stroke-dasharray:none;stroke-dashoffset:0;stroke-opacity:1"
         r="2.8908136" />
      <circle
         r="2.8908136"
         style="opacity:1;fill:#ffffff;fill-opacity:1;stroke:#000000;stroke-width:0.46177432;stroke-linecap:round;stroke-linejoin:round;stroke-miterlimit:4;stroke-dasharray:none;stroke-dashoffset:0;stroke-opacity:1"
         id="circle852"
         cx="-25.829292"
         cy="106.71953" />
      <circle
         cy="106.71953"
         cx="4.1253209"
         id="circle854"
         style="opacity:1;fill:#ffffff;fill-opacity:1;stroke:#000000;stroke-width:0.46177432;stroke-linecap:round;stroke-linejoin:round;stroke-miterlimit:4;stroke-dasharray:none;stroke-dashoffset:0;stroke-opacity:1"
         r="2.8908136" />
    </g>
    <text
       dominant-baseline="middle"
       id="text4590"
       y="96.634796"
       x="-79.962585"
       style="font-style:normal;font-variant:normal;font-weight:bold;font-stretch:normal;font-size:15.90327549px;line-height:1;font-family:'Liberation Sans';-inkscape-font-specification:'Liberation Sans Bold';text-align:center;letter-spacing:0px;word-spacing:0px;dominant-baseline:middle;text-anchor:middle;fill:#ffffff;fill-opacity:1;stroke:none;stroke-width:0.79516375"
       xml:space="preserve"><tspan
         style="text-align:center;text-anchor:middle;fill:#ffffff;stroke-width:0.79516375"
         y="96.634796"
         x="-79.962585"
         id="tspan4588">$S1</tspan></text>
    <text
       xml:space="preserve"
       style="font-style:normal;font-variant:normal;font-weight:bold;font-stretch:normal;font-size:15.90327549px;line-height:1;font-family:'Liberation Sans';-inkscape-font-specification:'Liberation Sans Bold';text-align:center;letter-spacing:0px;word-spacing:0px;dominant-baseline:middle;text-anchor:middle;fill:#ffffff;fill-opacity:1;stroke:none;stroke-width:0.79516375"
       x="29.03706"
       y="97.436607"
       id="text4594"
       dominant-baseline="middle"><tspan
         id="tspan4592"
         x="29.03706"
         y="97.436607"
         style="text-align:center;text-anchor:middle;fill:#ffffff;stroke-width:0.79516375">$S3</tspan></text>
    <text
       id="text4614"
       y="186.99966"
       x="-55.324791"
       style="font-style:normal;font-variant:normal;font-weight:bold;font-stretch:normal;font-size:15.90322208px;line-height:1;font-family:'Liberation Sans';-inkscape-font-specification:'Liberation Sans Bold';text-align:center;letter-spacing:0px;word-spacing:0px;text-anchor:middle;fill:#ffffff;fill-opacity:1;stroke:none;stroke-width:0.26458332"
       xml:space="preserve"><tspan
         style="font-size:15.90322208px;fill:#ffffff;stroke-width:0.26458332"
         y="186.99966"
         x="-55.324791"
         id="tspan4612">$S2</tspan></text>
    <text
       xml:space="preserve"
       style="font-style:normal;font-variant:normal;font-weight:bold;font-stretch:normal;font-size:15.90322208px;line-height:1;font-family:'Liberation Sans';-inkscape-font-specification:'Liberation Sans Bold';text-align:center;letter-spacing:0px;word-spacing:0px;text-anchor:middle;fill:#ffffff;fill-opacity:1;stroke:none;stroke-width:0.26458332"
       x="-25.524237"
       y="186.99966"
       id="text4618"><tspan
         id="tspan4616"
         x="-25.524237"
         y="186.99966"
         style="font-size:15.90322208px;fill:#ffffff;stroke-width:0.26458332">$S2</tspan></text>
    <text
       id="text4622"
       y="186.99966"
       x="4.1426806"
       style="font-style:normal;font-variant:normal;font-weight:bold;font-stretch:normal;font-size:15.90322208px;line-height:1;font-family:'Liberation Sans';-inkscape-font-specification:'Liberation Sans Bold';text-align:center;letter-spacing:0px;word-spacing:0px;text-anchor:middle;fill:#ffffff;fill-opacity:1;stroke:none;stroke-width:0.26458332"
       xml:space="preserve"><tspan
         style="font-size:15.90322208px;fill:#ffffff;stroke-width:0.26458332"
         y="186.99966"
         x="4.1426802"
         id="tspan4620">$S2</tspan></text>
    <text
       xml:space="preserve"
       style="font-style:normal;font-variant:normal;font-weight:bold;font-stretch:normal;font-size:15.90322208px;line-height:1;font-family:'Liberation Sans';-inkscape-font-specification:'Liberation Sans Bold';text-align:center;letter-spacing:0px;word-spacing:0px;text-anchor:middle;fill:#ffffff;fill-opacity:1;stroke:none;stroke-width:0.26458332"
       x="-55.324791"
       y="75.387642"
       id="text4626"><tspan
         id="tspan4624"
         x="-55.324791"
         y="75.387642"
         style="font-size:15.90322208px;fill:#ffffff;stroke-width:0.26458332">$S4</tspan></text>
    <text
       id="text4630"
       y="75.387642"
       x="-25.731941"
       style="font-style:normal;font-variant:normal;font-weight:bold;font-stretch:normal;font-size:15.90322208px;line-height:1;font-family:'Liberation Sans';-inkscape-font-specification:'Liberation Sans Bold';text-align:center;letter-spacing:0px;word-spacing:0px;text-anchor:middle;fill:#ffffff;fill-opacity:1;stroke:none;stroke-width:0.26458332"
       xml:space="preserve"><tspan
         style="font-size:15.90322208px;fill:#ffffff;stroke-width:0.26458332"
         y="75.387642"
         x="-25.731941"
         id="tspan4628">$S4</tspan></text>
    <text
       xml:space="preserve"
       style="font-style:normal;font-variant:normal;font-weight:bold;font-stretch:normal;font-size:15.90322208px;line-height:1;font-family:'Liberation Sans';-inkscape-font-specification:'Liberation Sans Bold';text-align:center;letter-spacing:0px;word-spacing:0px;text-anchor:middle;fill:#ffffff;fill-opacity:1;stroke:none;stroke-width:0.26458332"
       x="4.3954477"
       y="75.387642"
       id="text4634"><tspan
         id="tspan4632"
         x="4.3954473"
         y="75.387642"
         style="font-size:15.90322208px;fill:#ffffff;stroke-width:0.26458332">$S4</tspan></text>
    <path
       id="path4747"
       d="m -64.137624,125.95439 h 38.620448 V 90.273917"
       style="opacity:1;fill:none;stroke:#f4efef;stroke-width:0.96499997;stroke-linecap:butt;stroke-linejoin:miter;stroke-miterlimit:4;stroke-dasharray:none;stroke-opacity:1" />
    <path
       id="path4753"
       d="m -27.956009,93.747973 2.438833,-3.474056 2.271793,3.407246"
       style="fill:none;stroke:#f4efef;stroke-width:0.96499997;stroke-linecap:butt;stroke-linejoin:miter;stroke-miterlimit:4;stroke-dasharray:none;stroke-opacity:1" />
    <path
       id="path4755"
       d="M -55.985902,89.204839 V 119.00539"
       style="fill:none;stroke:#f4efef;stroke-width:0.96499997;stroke-linecap:butt;stroke-linejoin:miter;stroke-miterlimit:4;stroke-dasharray:none;stroke-opacity:1" />
    <path
       id="path4757"
       d="M -63.73672,96.688383 H 9.3614949"
       style="fill:none;stroke:#f4efef;stroke-width:0.96499997;stroke-linecap:butt;stroke-linejoin:miter;stroke-miterlimit:4;stroke-dasharray:none;stroke-opacity:1" />
    <path
       id="path4759"
       d="M -58.658598,155.62131 H -8.41146 V 145.46549 H 3.2142981 V 91.20936"
       style="fill:none;stroke:#f4efef;stroke-width:0.96499997;stroke-linecap:butt;stroke-linejoin:miter;stroke-miterlimit:4;stroke-dasharray:none;stroke-opacity:1" />
    <path
       id="path4761"
       d="M 11.633287,125.95439 H -14.559127"
       style="fill:none;stroke:#f4efef;stroke-width:0.96499997;stroke-linecap:butt;stroke-linejoin:miter;stroke-miterlimit:4;stroke-dasharray:none;stroke-opacity:1" />
    <path
       id="path4765"
       d="m -55.718633,163.50576 v -29.80055 h 30.201457 v 29.26601"
       style="fill:none;stroke:#f4efef;stroke-width:0.96499997;stroke-linecap:butt;stroke-linejoin:miter;stroke-miterlimit:4;stroke-dasharray:none;stroke-opacity:1" />
    <path
       style="fill:none;stroke:#f4efef;stroke-width:0.96499997;stroke-linecap:butt;stroke-linejoin:miter;stroke-miterlimit:4;stroke-dasharray:none;stroke-opacity:1"
       d="m 0.64183047,93.747973 2.43883303,-3.474056 2.271793,3.407246"
       id="path4767" />
    <path
       id="path4769"
       d="m -11.085077,128.39323 -3.47405,-2.43884 3.40724,-2.27179"
       style="fill:none;stroke:#f4efef;stroke-width:0.96499997;stroke-linecap:butt;stroke-linejoin:miter;stroke-miterlimit:4;stroke-dasharray:none;stroke-opacity:1" />
    <path
       style="fill:none;stroke:#f4efef;stroke-width:0.96499997;stroke-linecap:butt;stroke-linejoin:miter;stroke-miterlimit:4;stroke-dasharray:none;stroke-opacity:1"
       d="m -11.085077,128.39323 -3.47405,-2.43884 3.40724,-2.27179"
       id="path4771" />
    <path
       id="path4773"
       d="m -53.547062,115.53134 -2.43884,3.47405 -2.27179,-3.40724"
       style="fill:none;stroke:#f4efef;stroke-width:0.96499997;stroke-linecap:butt;stroke-linejoin:miter;stroke-miterlimit:4;stroke-dasharray:none;stroke-opacity:1" />
    <path
       style="fill:none;stroke:#f4efef;stroke-width:0.96499997;stroke-linecap:butt;stroke-linejoin:miter;stroke-miterlimit:4;stroke-dasharray:none;stroke-opacity:1"
       d="m -23.078336,160.23217 -2.43884,3.47405 -2.27179,-3.40724"
       id="path4775" />
    <path
       id="path4777"
       d="m -53.279793,160.03171 -2.43884,3.47405 -2.27179,-3.40724"
       style="fill:none;stroke:#f4efef;stroke-width:0.96499997;stroke-linecap:butt;stroke-linejoin:miter;stroke-miterlimit:4;stroke-dasharray:none;stroke-opacity:1" />
    <path
       style="fill:none;stroke:#f4efef;stroke-width:0.96499997;stroke-linecap:butt;stroke-linejoin:miter;stroke-miterlimit:4;stroke-dasharray:none;stroke-opacity:1"
       d="M 12.887855,156.1165 H 3.7337989 v 8.08474"
       id="path4779" />
    <path
       id="path4781"
       d="m 6.1834563,161.49014 -2.43884,3.47405 -2.27179,-3.40724"
       style="fill:none;stroke:#f4efef;stroke-width:0.96499997;stroke-linecap:butt;stroke-linejoin:miter;stroke-miterlimit:4;stroke-dasharray:none;stroke-opacity:1" />
    <text
       dominant-baseline="middle"
       id="text4785"
       y="126.30172"
       x="29.03706"
       style="font-style:normal;font-variant:normal;font-weight:bold;font-stretch:normal;font-size:15.90327549px;line-height:1;font-family:'Liberation Sans';-inkscape-font-specification:'Liberation Sans Bold';text-align:center;letter-spacing:0px;word-spacing:0px;dominant-baseline:middle;text-anchor:middle;fill:#ffffff;fill-opacity:1;stroke:none;stroke-width:0.79516375"
       xml:space="preserve"><tspan
         style="text-align:center;text-anchor:middle;fill:#ffffff;stroke-width:0.79516375"
         y="126.30172"
         x="29.03706"
         id="tspan4783">$S3</tspan></text>
    <text
       xml:space="preserve"
       style="font-style:normal;font-variant:normal;font-weight:bold;font-stretch:normal;font-size:15.90327549px;line-height:1;font-family:'Liberation Sans';-inkscape-font-specification:'Liberation Sans Bold';text-align:center;letter-spacing:0px;word-spacing:0px;dominant-baseline:middle;text-anchor:middle;fill:#ffffff;fill-opacity:1;stroke:none;stroke-width:0.79516375"
       x="29.03706"
       y="156.2359"
       id="text4789"
       dominant-baseline="middle"><tspan
         id="tspan4787"
         x="29.03706"
         y="156.2359"
         style="text-align:center;text-anchor:middle;fill:#ffffff;stroke-width:0.79516375">$S3</tspan></text>
    <text
       xml:space="preserve"
       style="font-style:normal;font-variant:normal;font-weight:bold;font-stretch:normal;font-size:15.90327549px;line-height:1;font-family:'Liberation Sans';-inkscape-font-specification:'Liberation Sans Bold';text-align:center;letter-spacing:0px;word-spacing:0px;dominant-baseline:middle;text-anchor:middle;fill:#ffffff;fill-opacity:1;stroke:none;stroke-width:0.79516375"
       x="-79.962585"
       y="126.16808"
       id="text4793"
       dominant-baseline="middle"><tspan
         id="tspan4791"
         x="-79.962585"
         y="126.16808"
         style="text-align:center;text-anchor:middle;fill:#ffffff;stroke-width:0.79516375">$S1</tspan></text>
    <text
       dominant-baseline="middle"
       id="text4797"
       y="157.70589"
       x="-79.962585"
       style="font-style:normal;font-variant:normal;font-weight:bold;font-stretch:normal;font-size:15.90327549px;line-height:1;font-family:'Liberation Sans';-inkscape-font-specification:'Liberation Sans Bold';text-align:center;letter-spacing:0px;word-spacing:0px;dominant-baseline:middle;text-anchor:middle;fill:#ffffff;fill-opacity:1;stroke:none;stroke-width:0.79516375"
       xml:space="preserve"><tspan
         style="text-align:center;text-anchor:middle;fill:#ffffff;stroke-width:0.79516375"
         y="157.70589"
         x="-79.962585"
         id="tspan4795">$S1</tspan></text>
    <g
       transform="matrix(0.00821703,0,0,0.00821703,-64.177233,188.80766)"
       id="g8"
       style="fill:#c83737;fill-opacity:1">
      <g
         id="g10"
         style="fill:#c83737;fill-opacity:1">
        <path
           class="fi0"
           d="m 4403.03,5101.94 c -680.52,-547.421 -364.819,-1220.72 47.8543,-1530.21 44.7244,40.6614 72.4528,61.6339 104.776,98.0669 -297.835,221.5 -693.508,644.504 -165.669,1306.96 109.063,103.512 376.181,143.165 470.882,-65.8071 21.0906,-46.5354 31.6693,-64.7717 45.9252,-33.815 99.5551,304.512 -330.091,324.799 -503.768,224.803 z"
           id="path12"
           style="fill:#c83737;fill-opacity:1" />
        <path
           class="fi0"
           d="m 4437.53,4504.59 c -14.7323,-47.1063 -45.8465,-73.7126 21.315,-52.7638 211.874,66.0787 491.685,168.386 590.26,15.6496 237.587,-368.079 -592.638,-981.335 -824.512,-1149.57 19.1535,-16.1063 23.7008,-18.4488 47.9961,-34.0551 401.866,234.106 1159.13,827.335 862.551,1257.74 -194.366,282.051 -684.421,5.1654 -697.61,-36.9961 z"
           id="path14"
           style="fill:#c83737;fill-opacity:1" />
        <path
           class="fi0"
           d="m 5055.82,3298.59 c 24.6024,-30.9016 18.2165,-19.815 44.3583,-35.1772 221.161,115.496 712.787,337.217 966.087,265.374 133.598,-34.626 388.071,-129.594 102.787,28.374 -241.315,157.382 -892.906,-131.461 -1113.23,-258.571 z"
           id="path16"
           style="fill:#c83737;fill-opacity:1" />
        <path
           class="fi0"
           d="m 3178.98,3544.03 c -165.382,-41.6378 -129.177,-53.4134 -2.4606,-49.1457 709.169,-103.776 882.945,-227.197 1263.4,-528.937 34.3976,19.6575 71.2598,37.3819 100.22,71.9094 -326.106,326.102 -902.579,527.016 -1361.16,506.173 z"
           id="path18"
           style="fill:#c83737;fill-opacity:1" />
        <path
           class="fi0"
           d="m 4863.26,3163.28 c -116.307,-64.0748 -500.189,-293.516 -678.425,-441.512 4.9173,-4.9134 37.0433,-23.122 44.4173,-25.5787 210.106,153.161 455.394,293.429 671.642,431.043 4.7677,23.874 -23.8976,22.311 -37.6339,36.0472 z"
           id="path20"
           style="fill:#c83737;fill-opacity:1" />
        <path
           class="fi0"
           d="m 4904.41,2557.25 c -116.307,-64.0787 -557.528,-320.697 -735.764,-468.689 4.9173,-4.9134 37.0433,-23.122 44.4173,-25.5827 210.106,153.161 525.35,323.146 741.598,460.756 -18.7874,17.9961 -36.5157,19.7756 -50.252,33.5157 z"
           id="path22"
           style="fill:#c83737;fill-opacity:1" />
        <path
           class="fi0"
           d="m 3473.32,2906.76 c 63.2165,25.3819 34.2323,27.3661 95.0827,56.8268 -241.697,135.433 -785.382,48.4134 -720.697,-220.024 77.6732,-322.358 890.957,159.465 1239.83,432.906 -14.5512,1.6063 -5.4016,20.0748 -43.5827,33.7008 -272.205,-254.756 -1151.37,-734.335 -1120.09,-415.626 18.7126,190.654 468.098,219.835 549.453,112.217 z"
           id="path24"
           style="fill:#c83737;fill-opacity:1" />
        <path
           class="fi0"
           d="m 5615.47,2810.42 c 38.1614,-56.626 557.232,-141.591 535.421,79.9016 -20.9528,212.732 -935.728,-214.496 -1006.07,-240.35 -2.937,9.1693 -27.2244,12.0197 -46.6102,34.3031 117.323,52.2441 1130.8,540.846 1120.09,173.894 -3.6457,-124.933 -365.894,-280.496 -708.567,-89.0394 34.8622,15.811 24.0669,8.1299 105.74,41.2913 z"
           id="path26"
           style="fill:#c83737;fill-opacity:1" />
        <path
           class="fi0"
           d="m 7738.04,1615.05 c -298.748,-859.85 -2546.93,386.189 -3017.73,707.854 -29.9055,-23.5 -65.9134,-33.748 -109.138,-71.9252 548.11,-396.331 2821.17,-1659.43 3272.6,-738.173 450.476,919.291 -1397.43,1314.89 -1999.7,902.819 -2.4567,-7.3701 -2.4567,-12.2874 -2.4567,-17.2047 46.6929,0 103.213,34.4055 149.898,54.063 500.807,79.0709 2005.28,22.4173 1706.52,-837.433 z"
           id="path28"
           style="fill:#c83737;fill-opacity:1" />
        <path
           class="fi0"
           d="m 3184.45,2076.13 c 32.5157,14.0591 19.878,18.2756 11.9567,37.9409 -135.37,21.9134 -903.409,-15.2008 -766.024,-314.13 107.634,-234.201 591.835,21.6732 781.276,154.276 189.441,132.606 631.02,448.957 837.031,595.157 0,9.8307 -46.5669,17.6614 -44.1102,29.9449 -305.272,-209.476 -538.461,-396.256 -810,-569.425 -271.543,-173.173 -581.996,-284.11 -639.823,-188.004 -132.697,230.992 597.177,240.185 629.693,254.24 z"
           id="path30"
           style="fill:#c83737;fill-opacity:1" />
        <path
           class="fi0"
           d="m 3402.47,2202.64 c 43.0945,39.7087 101.39,71.0669 126.933,109.457 -865.094,288.185 -1788.48,390.661 -2095.83,-414.449 -116.854,-306.134 102.61,-687.724 398.327,-789.087 673.602,-230.902 1603.27,485.724 2165.45,802.52 -22.5354,11.622 -28.6457,14.4843 -58.2047,22.1102 -899.413,-422.358 -2004.74,-1249.32 -2320.59,-427.677 -304.815,792.941 934.118,1126.87 1783.92,697.126 z"
           id="path32"
           style="fill:#c83737;fill-opacity:1" />
        <path
           class="fi0"
           d="m 5224.02,2070.11 c -2.4606,-9.8307 53.7205,-33.3346 53.7205,-40.7087 172.315,45.2756 1282.44,319.358 1165.52,-57.7362 -73.1299,-235.886 -482.949,6.1496 -656.539,130.839 -50.5787,-9.1024 -69.6654,-16.0236 -118.63,-27.1417 137.197,-121.445 726.815,-475.768 859.22,-99.0276 149.406,425.142 -1131.4,160.26 -1303.29,93.7756 z"
           id="path34"
           style="fill:#c83737;fill-opacity:1" />
        <path
           class="fi0"
           d="m 3531.37,2132.88 c 297.343,-95.8386 667.61,-231.874 940.374,-389.142 31.878,10.689 71.937,25.811 135.15,68.8031 -267.85,159.728 -648.051,316.39 -947.85,409.768 -15.2756,-17.7992 -47.8386,-39.3228 -110.606,-77.3661 -7.7126,-4.6654 -8.4291,-6.8819 -17.0669,-12.063 z"
           id="path36"
           style="fill:#c83737;fill-opacity:1" />
        <path
           class="fi0"
           d="m 3603.71,2806.24 c 289.811,-116.654 604.35,-262.291 865.295,-438.484 32.5591,8.4055 55.6693,28.7441 121.768,67.1535 -255.866,178.295 -621.657,351.72 -858.252,440.913 -15.878,-17.0669 -47.5669,-25.8268 -100.953,-48.5472 -8.252,-3.5158 -18.874,-16.4764 -27.8583,-21.0354 z"
           id="path38"
           style="fill:#c83737;fill-opacity:1" />
        <path
           class="fi0"
           d="m 4610.89,3435.92 c 282.827,-248.594 509.665,-407.591 770.606,-583.783 32.5276,9.5354 42.0433,24.9409 118.449,52.7913 -255.866,178.299 -481.524,316.071 -782.37,618.413 -72.9055,-78.2874 -45.5276,-46.7874 -106.685,-87.4213 z"
           id="path40"
           style="fill:#c83737;fill-opacity:1" />
        <path
           class="fi0"
           d="m 4559.75,2851.93 c 340.961,-219.354 687.634,-482.717 948.579,-658.909 29.8425,4.8268 63.5669,2.4882 155.929,24 -255.87,178.299 -669.224,494.65 -989.504,715.248 -65.4213,-49.3898 -56.0591,-32.6142 -115.004,-80.3386 z"
           id="path42"
           style="fill:#c83737;fill-opacity:1" />
        <path
           class="fi1"
           d="m 5020.08,1951.4 c -2.7008,-11.4213 53.9291,-28.8898 53.9291,-37.4567 -335.772,-142.295 -657.937,-323.295 -979.65,-484.114 150.13,-41.311 480.358,-227.933 574.555,-220.783 109.626,56.3937 140.646,69.7402 402.043,161.701 35.7402,3.6811 36.4646,12.2559 0.7205,22.8425 -62.2441,37.126 -176.957,117.173 -447.315,254.272 31.2559,22.6299 -12.1535,-21.3189 139.327,69.5276 250.039,-155.799 412.807,-266.681 642.843,-292.382 33.9843,-10.6496 63.0315,-22.3701 8.1181,-34.2677 -32.0236,-6.9331 -41.1102,-13.0197 -209.685,-46.5276 -205.752,-40.9055 -383.591,-125.413 -567.618,-231.075 -204.441,20.2953 -553.791,238.941 -781.516,263.323 -2.7087,8.5669 -2.7087,17.1299 -2.7087,25.7047 265.484,55.5591 970.055,489.575 1166.96,549.236 z"
           id="path44"
           style="fill:#c83737;fill-opacity:1" />
      </g>
    </g>
  </g>
</svg>
